<?xml version="1.0" standalone="no"?>
<!DOCTYPE svg PUBLIC "-//W3C//DTD SVG 20010904//EN"
 "http://www.w3.org/TR/2001/REC-SVG-20010904/DTD/svg10.dtd">
<svg version="1.0" xmlns="http://www.w3.org/2000/svg"
 width="64.000000pt" height="64.000000pt" viewBox="0 0 64.000000 64.000000"
 preserveAspectRatio="xMidYMid meet">

<g transform="translate(0.000000,64.000000) scale(0.100000,-0.100000)"
fill="#000000" stroke="none">
<path d="M409 591 c-63 -20 -99 -65 -99 -127 0 -28 0 -28 -15 -7 -17 25 -73
49 -138 58 -44 7 -47 6 -47 -14 0 -71 72 -147 150 -157 85 -11 55 -24 -55 -24
-63 0 -105 -4 -105 -10 0 -6 42 -10 105 -10 62 0 105 -4 105 -10 0 -5 -11 -12
-24 -16 -13 -3 -37 -19 -52 -35 -24 -25 -29 -39 -29 -79 0 -43 5 -54 33 -82
47 -48 117 -48 164 0 28 28 33 39 33 82 0 40 -5 54 -29 79 -15 16 -39 32 -52
35 -13 4 -24 11 -24 16 0 6 43 10 105 10 63 0 105 4 105 10 0 6 -42 10 -105
10 l-105 0 0 65 0 64 34 6 c67 13 126 73 126 129 0 17 -35 20 -81 7z m61 -20
c0 -27 -49 -77 -88 -90 -24 -7 -46 -11 -49 -7 -15 15 23 70 61 87 44 20 76 24
76 10z m-232 -99 c37 -17 57 -42 68 -86 l7 -29 -43 6 c-63 8 -118 55 -135 115
-6 22 -5 23 32 16 21 -3 53 -13 71 -22z m131 -226 c47 -25 63 -83 37 -135 -35
-66 -137 -66 -172 0 -47 91 44 182 135 135z"/>
<path d="M285 190 l-29 -30 32 -33 32 -32 32 32 32 33 -29 30 c-16 16 -32 30
-35 30 -3 0 -19 -14 -35 -30z m55 -16 c11 -12 10 -18 -3 -32 -16 -15 -18 -15
-34 0 -13 14 -14 20 -3 32 7 9 16 16 20 16 4 0 13 -7 20 -16z"/>
</g>
</svg>
